<svg xmlns="http://www.w3.org/2000/svg" viewBox="6252.343 4515.399 108.22 33.52">
  <defs>
    <style>
      .cls-1 {
        fill: #b73fa0;
      }

      .cls-2 {
        fill: #a63bac;
      }

      .cls-3 {
        fill: #9636b9;
      }

      .cls-4 {
        fill: #8532c5;
      }

      .cls-5 {
        fill: #fff;
      }
    </style>
  </defs>
  <g id="Group_279" data-name="Group 279" transform="translate(6252.343 4515.399)">
    <path id="Path_42" data-name="Path 42" class="cls-1" d="M2.181,0A2.181,2.181,0,1,0,4.361,2.181V2.163A2.2,2.2,0,0,0,2.181,0Z"/>
    <path id="Path_43" data-name="Path 43" class="cls-2" d="M2.181,54A2.15,2.15,0,0,0,0,56.161a2.181,2.181,0,0,0,4.361,0h0A2.184,2.184,0,0,0,2.181,54Z" transform="translate(0 -44.267)"/>
    <path id="Path_44" data-name="Path 44" class="cls-3" d="M2.181,107.9a2.181,2.181,0,1,0,2.181,2.181h0A2.2,2.2,0,0,0,2.181,107.9Z" transform="translate(0 -88.455)"/>
    <path id="Path_45" data-name="Path 45" class="cls-4" d="M2.181,161.9a2.172,2.172,0,1,0,2.181,2.181A2.177,2.177,0,0,0,2.181,161.9Z" transform="translate(0 -132.723)"/>
    <path id="Path_46" data-name="Path 46" class="cls-5" d="M86.957,25.1a12.357,12.357,0,0,1,4.091,2.667l-2.325,2.9a9.819,9.819,0,0,0-3.028-2.2,8.244,8.244,0,0,0-3.532-.811,8.312,8.312,0,0,0-7.317,12.471h0a8.268,8.268,0,0,0,3.046,3.01,8.368,8.368,0,0,0,4.253,1.1,8.549,8.549,0,0,0,3.478-.739,9.924,9.924,0,0,0,3.082-2.054l2.343,2.631a13.636,13.636,0,0,1-4.235,2.829,12.3,12.3,0,0,1-4.884,1.027,12.522,12.522,0,0,1-6.217-1.586A11.44,11.44,0,0,1,71.3,42.023a11.739,11.739,0,0,1,4.487-16.345A13.256,13.256,0,0,1,86.957,25.1Z" transform="translate(-57.132 -19.785)"/>
    <path id="Path_47" data-name="Path 47" class="cls-5" d="M210.3,41.878V16.9h3.875V41.878Z" transform="translate(-172.401 -13.854)"/>
    <path id="Path_48" data-name="Path 48" class="cls-5" d="M278.132,73.931h-3.857v-3.5c-1.153,2.379-3.3,3.586-6.4,3.622a6.286,6.286,0,0,1-4.812-1.856,7.1,7.1,0,0,1-1.766-5.046V56.018h3.875V66.092a4.362,4.362,0,0,0,1.117,3.172,4.035,4.035,0,0,0,3.064,1.153,4.551,4.551,0,0,0,3.586-1.6,5.974,5.974,0,0,0,1.334-3.983V56h3.857Z" transform="translate(-214.21 -45.908)"/>
    <path id="Path_49" data-name="Path 49" class="cls-5" d="M392.042,41.878h-3.857V38.814a6.351,6.351,0,0,1-2.577,2.4,8.071,8.071,0,0,1-3.73.829,8.488,8.488,0,0,1-4.487-1.153,7.915,7.915,0,0,1-3.01-3.244,10.245,10.245,0,0,1-1.081-4.776,10.022,10.022,0,0,1,1.081-4.722,7.9,7.9,0,0,1,3.01-3.19,8.519,8.519,0,0,1,4.433-1.135,7.935,7.935,0,0,1,3.748.847,7.056,7.056,0,0,1,2.613,2.433V16.9h3.857Zm-5.388-4.686a5.851,5.851,0,0,0,1.532-4.2,5.939,5.939,0,0,0-1.532-4.235,5.569,5.569,0,0,0-7.911.018,6.043,6.043,0,0,0-1.568,4.235,5.953,5.953,0,0,0,1.568,4.2,5.218,5.218,0,0,0,3.947,1.64,5.377,5.377,0,0,0,3.965-1.658Z" transform="translate(-306.026 -13.854)"/>
    <path id="Path_50" data-name="Path 50" class="cls-5" d="M511.091,56.543a8.378,8.378,0,0,1,3.3,3.19,10.175,10.175,0,0,1,0,9.479,8.075,8.075,0,0,1-3.3,3.208,10.082,10.082,0,0,1-4.848,1.135,10.227,10.227,0,0,1-4.884-1.135,8.305,8.305,0,0,1-3.3-3.208,10.174,10.174,0,0,1,0-9.479,8.144,8.144,0,0,1,3.3-3.19,9.981,9.981,0,0,1,4.884-1.153A9.87,9.87,0,0,1,511.091,56.543Zm-8.794,3.8a5.792,5.792,0,0,0-1.532,4.163,5.865,5.865,0,0,0,1.532,4.217,5.2,5.2,0,0,0,3.947,1.622,5.137,5.137,0,0,0,3.929-1.622,5.932,5.932,0,0,0,1.514-4.217,5.807,5.807,0,0,0-1.532-4.181,5.591,5.591,0,0,0-7.857.018Z" transform="translate(-407.342 -45.406)"/>
  </g>
</svg>
